PathFileType	4	(X/Y/Z)	Patient4_TMGait_0pt3_02_right_09.trc.trc
DataRate	CameraRate	NumFrames	NumMarkers	Units	OrigDataRate	OrigDataStartFrame	OrigNumFrames
51.094890510949	51.094890510949	6	33	mm	51.094890510949	18	       141
Frame#	Time	Sacral			L.Shoulder			Chest			R.Shoulder			Neck			R.ASIS			L.ASIS			R.Thigh.Superior			R.Thigh.Lateral			R.Thigh.Inferior			R.Patella			L.Thigh.Superior			L.Thigh.Lateral			L.Thigh.Inferior			L.Patella			L.Shank.Superior			L.Shank.Lateral			L.Shank.Inferior			R.Shank.Superior			R.Shank.Lateral			R.Shank.Inferior			R.Heel			R.Midfoot.Superior			R.Midfoot.Lateral			R.Toe			L.Heel			L.Midfoot.Lateral			L.Midfoot.Superior			L.Toe			L.Elbow			L.Wrist			R.Elbow			R.Wrist			
		X1	Y1	Z1	X2	Y2	Z2	X3	Y3	Z3	X4	Y4	Z4	X5	Y5	Z5	X6	Y6	Z6	X7	Y7	Z7	X8	Y8	Z8	X9	Y9	Z9	X10	Y10	Z10	X11	Y11	Z11	X12	Y12	Z12	X13	Y13	Z13	X14	Y14	Z14	X15	Y15	Z15	X16	Y16	Z16	X17	Y17	Z17	X18	Y18	Z18	X19	Y19	Z19	X20	Y20	Z20	X21	Y21	Z21	X22	Y22	Z22	X23	Y23	Z23	X24	Y24	Z24	X25	Y25	Z25	X26	Y26	Z26	X27	Y27	Z27	X28	Y28	Z28	X29	Y29	Z29	X30	Y30	Z30	X31	Y31	Z31	X32	Y32	Z32	X33	Y33	Z33	

18	16.862714285714	692.260141228948	998.795508905145	404.874725301118	900.672157853804	1432.288462883670	252.822043457009	967.436962404068	1364.669293281321	431.613422274823	850.985634388034	1437.055936815168	585.312693705549	853.426375330834	1494.870617197399	403.877834745654	904.282936709727	946.091425810538	558.228793404892	930.454435556482	961.286526594175	283.495597006140	984.846970335041	767.902741608363	535.453977470359	933.971236861163	647.969700597210	603.285469157462	1025.147498817746	607.990177827374	527.984137997236	1054.741531486829	519.615271222489	550.155503969067	956.505576118082	739.543691513493	322.884652154769	861.901505300385	625.915885720860	259.765903081092	930.331645762047	545.648259211208	333.612729457428	922.325604579006	476.612785977384	345.267522728958	888.943308654947	406.022772254833	338.112859210358	791.357562287713	297.140713214532	289.378999189559	827.148615777005	185.786709908273	368.147583836629	1023.770082575898	431.212135728635	560.387761828998	948.422765107234	328.768767211245	621.273896129111	1006.566865939774	231.724322400585	575.854913612727	888.803096183825	56.161552354772	543.478176149435	1054.552983094221	114.716931443876	593.010924381331	968.871067584403	45.815465697734	621.543527527596	1174.406730832660	68.817207247869	625.697953983605	688.595518135500	37.794579646871	416.071464562714	760.018613277447	35.108787653050	332.978724662976	844.690212025064	95.182671325357	358.705085183444	971.693334593604	44.983014154738	325.555058194149	1021.997296741963	1121.492972721986	107.944645851418	1266.074358843516	1033.307196462318	138.467533324768	690.045087998579	1129.846991229527	685.582831950031	659.139677951290	872.993333440579	715.280950937122	
19	16.882285714286	692.820031194460	998.659983582713	404.999604827719	903.877328355650	1432.229740187856	256.322262839001	968.290125028925	1364.095710071905	435.736711764591	850.052201918631	1436.540155053398	588.157967069497	854.832437963623	1494.470621079641	406.933591920148	903.198657136961	945.281781219081	560.596339826512	932.029713196596	960.905144795230	286.017406294266	982.382245195676	765.719027348597	538.918548775167	929.042353525001	646.068346024492	605.409087722836	1020.767273416728	605.607498418169	531.139683958109	1049.517871078167	518.789039679226	552.268877193487	955.256006985937	738.422104239393	324.898381561014	859.556058736757	625.932952184732	260.586294132716	926.476998371157	544.749627573566	334.478627170675	917.514464972546	475.852414752999	345.892962631301	884.171246925943	405.678203983894	338.527987320102	786.264145224089	297.168626770605	289.417010351938	821.554495493896	185.623894764455	368.178583622632	1021.209426282445	430.201135650005	562.113484364720	949.066844260831	325.499497289231	623.241915177152	1009.785256894784	230.214107501154	577.284321269075	896.348754621991	52.709026751615	545.274058616044	1061.387599217374	113.308790736307	593.349893369799	977.208157102963	43.196536526278	622.595430451371	1182.405968631607	69.334176654990	624.952455961549	682.673071034431	37.801426152008	416.038866214297	754.091722804025	35.064681214645	332.955797331140	838.814151281117	95.088351767468	358.694509213953	965.824215297412	44.733613451559	325.594039286525	1028.207278914666	1124.079219015714	109.886560944356	1274.978571856813	1045.166771973728	142.200236423468	683.720624445744	1131.768535762032	684.262758487634	650.527829889548	874.959108365239	712.963748713623	
20	16.901857142857	693.632140832469	998.203837076116	405.468756234155	906.877731176441	1431.886902101925	260.027525226228	969.182679802618	1363.331532190088	439.987411367047	849.254393517616	1435.759996247833	591.239220364380	856.194261877562	1493.815825823360	410.220937426209	902.438451314656	944.195919573573	563.158202950155	933.826011872079	960.297151049412	288.800909379213	980.201809478819	763.181786336211	542.547169333640	924.267998249900	643.809788094884	607.435376261003	1016.620293549236	602.949349975226	534.243417981820	1044.301694712974	517.406185314717	554.255027014076	954.565578209008	737.199138730047	327.106398191276	857.881439256175	625.757804570242	261.666497544820	923.390941316546	543.729300366329	335.585997212258	913.548846111221	474.909958224182	346.753006665037	880.067891687818	405.116889361477	339.174962143508	781.634651733422	297.198728334442	289.619524990407	816.200098955772	185.366628815545	368.302438364995	1018.195765702748	428.647440777662	563.727773956726	948.546948428203	322.232286074298	624.833449070190	1011.266934552885	228.432363652742	578.427379487883	901.129820549756	49.910794599161	546.547490656174	1065.694281390775	111.744713809696	593.539625858095	982.458607548111	41.098725036789	623.395958399155	1187.373655997075	68.971458710387	624.456131014040	676.752940348756	37.818227686379	415.998704802003	748.176651950161	35.027515016137	332.936806056627	832.960525227058	94.984538794213	358.712155063019	959.968355614205	44.438632370410	325.637642692962	1034.037386016963	1126.148338401958	112.301922577469	1283.088452355977	1056.228479679918	146.132499806158	679.346840688498	1132.453246814581	683.146803792296	644.763286044004	875.467873406945	710.675644721766	
21	16.921428571429	694.710702228782	997.540512164472	406.288474119746	909.707130508995	1431.359924108626	263.936352389071	970.147234952492	1362.463354034289	444.371028356654	848.623601628525	1434.801977384163	594.557396261976	857.528495865757	1492.994636235244	413.745350638139	902.023755592717	942.944822619558	565.917173653583	935.849799703264	959.527287323383	291.849221179446	978.362642005716	760.444395912690	546.264793295574	919.780906673253	641.334153230985	609.321584435627	1012.818435647543	600.183205442593	537.219126656012	1039.251638721768	515.604624220458	556.057731890810	954.402612852209	735.895859753157	329.508074921285	856.793264323197	625.438302398677	263.030897411025	920.980491834390	542.614281612303	336.954430478435	910.328689013835	473.820513659168	347.868842034339	876.537125719129	404.390021655452	340.063653400638	777.397921691150	297.266968174502	290.001495632415	811.052027390357	185.049343259023	368.518684266419	1014.889639287707	426.659000695113	565.171022153175	947.027181703683	319.009263239717	626.027636715838	1011.176247554186	226.387253854133	579.215580617029	903.277818614564	47.640916567877	547.278538571484	1067.632393604000	110.032140907460	593.504958484646	984.796043581905	39.454066862358	623.917072446981	1189.543275722720	67.800518025067	624.121782555494	670.838726268417	37.856095974080	415.943769482822	742.278139037349	35.004610740706	332.921975908449	827.131965159733	94.881170767192	358.750768757123	954.125488986147	44.099737003326	325.682164540466	1039.421843963711	1127.727960300722	115.195065957448	1290.369328492553	1066.417712852171	150.252952797286	676.825581200456	1132.001483989635	682.376552570512	641.707476629258	874.665790982610	708.593377399222	
22	16.941000000000	696.050411685235	996.792528496299	407.461967316628	912.420751388142	1430.748520432261	268.043489233605	971.219538623061	1361.574262039404	448.893742657260	848.194914213250	1433.763507643733	598.106517256180	858.863771775017	1492.099611938120	417.502844433699	901.958299880337	941.649121594482	568.882567040048	938.087210544074	958.662732691239	295.164847395451	976.926219317764	757.686249575125	549.989017361467	915.752932874109	638.808038755106	611.055001286320	1009.491053478809	597.491301726722	539.997088343948	1034.554662044369	513.545891440463	557.637007281671	954.694873106863	734.537267250812	332.102017264977	856.170564348147	625.032663942271	264.693053149199	919.113337579586	541.441176783461	338.592553923071	907.712605083753	472.630873734031	349.248837438250	873.452687514699	403.563289284754	341.191209918466	773.461569817341	297.412352591216	290.568580299760	806.067705236614	184.714220099219	368.820861444006	1011.492681905466	424.382346063872	566.402510695351	944.760037167358	315.911949860859	626.855041374934	1009.759181626613	224.144163587924	579.619551553275	903.047401368488	45.817838822317	547.509858879720	1067.460773387530	108.225252674631	593.206520817534	984.536526450402	38.217530682381	624.164131597713	1189.261312833040	65.968675054902	623.854354014334	664.933245635545	37.931132656998	415.866813941939	736.400826670648	35.005668212632	332.910887564905	821.331483249553	94.790371482961	358.800562117746	948.294848868412	43.720477022866	325.723300185965	1044.320604863953	1128.858114981331	118.551761209293	1296.815261482550	1075.666106583588	154.546082233208	676.001299144770	1130.584657407371	682.074923696972	641.173845505855	872.774824093928	706.892229518216	
23	16.960571428571	697.626462053865	996.077215125783	408.992954566764	915.085317651967	1430.141749709025	272.338894030989	972.433691353007	1360.735204710071	453.559277292596	848.003765757616	1432.742132641500	601.873858495870	860.237341565590	1491.218191981571	421.479719496568	902.230873237396	940.424734771459	572.067733916885	940.501742492311	957.768318473483	298.745658131781	975.956266507024	755.094701237438	553.635485313783	912.379695239381	636.405480672442	612.655829733657	1006.772040566054	595.048106782650	542.522253994561	1030.407675518385	511.396922199318	558.976232947326	955.334792898758	733.153204438004	334.882664813105	855.867929704117	624.604271661103	266.651658458308	917.634792941744	540.253761883952	340.492865183045	905.537654965199	471.395151826497	350.882585351066	870.674978567323	402.709922744208	342.538826417451	769.722692949975	297.673782729692	291.315520495450	801.201003140452	184.407277339671	369.195243191737	1008.225597410301	421.983431612633	567.408765170326	942.055024837103	313.045835860349	627.394018246651	1007.318266382292	221.809932172001	579.656322902946	900.793777098712	44.392716639136	547.336556052931	1065.513372169060	106.409642570825	592.656090069116	982.106188048262	37.351329398697	624.174913494547	1186.956512407875	63.675244612639	623.578545206359	659.038603313679	38.065546109403	415.761183465945	730.549076616439	35.042827645800	332.902179338171	815.562682481179	94.725320650110	358.849831844111	942.475568365536	43.305836826814	325.756423082921	1048.722894112356	1129.586453948084	122.342323539557	1302.451323766918	1083.907681032217	158.993524414566	676.669593068635	1128.425015141741	682.335647796109	642.921168763145	870.067290047722	705.738338941795	
